<?xml version="1.0" encoding="UTF-8"?>
<svg id="Layer_1" data-name="Layer 1" xmlns="http://www.w3.org/2000/svg" xmlns:xlink="http://www.w3.org/1999/xlink" viewBox="0 0 465.16 474.86">
  <defs>
    <style>
      .cls-1 {
        fill: url(#linear-gradient-2);
      }

      .cls-2 {
        fill: url(#linear-gradient);
      }
    </style>
    <linearGradient id="linear-gradient" x1="0" y1="192" x2="465.16" y2="192" gradientUnits="userSpaceOnUse">
      <stop offset="0" stop-color="#4281c3"/>
      <stop offset="1" stop-color="#1b3461"/>
    </linearGradient>
    <linearGradient id="linear-gradient-2" x1="26.34" y1="311.83" x2="383.97" y2="311.83" xlink:href="#linear-gradient"/>
  </defs>
  <path class="cls-2" d="M17.34,222.04c25.41-49.87,76.26-99.53,156.14-99.42,13.27,0,27.33,1.39,42.18,4.26,90.8,18.22,131.47,101.99,131.32,167.42,0,11.37-1.21,22.38-3.68,32.61-6.28,25.73-12.86,41.31-19.49,51.34,10.4,2.95,24.53,5.73,40.89,5.73s33.38-2.82,52.18-10.08c30.1-39.18,48.28-88.06,48.28-141.35s-18.4-103.59-49.28-143.03C373.34,35.08,307.04,0,232.56,0,104.13,0,0,104.11,0,232.57c0,11.46,1.1,22.61,2.72,33.6,2.87-14.96,7.42-30.03,14.62-44.13"/>
  <path class="cls-1" d="M358.47,412.47c-21.36,0-41.79-4.68-60.27-13.08-53.58-24.21-90.93-79.82-90.93-144.52,0-34.77,10.8-66.97,29.14-93.05-18.46-8.35-38.85-13.02-60.31-13.02-66.82,0-133.89,51.2-146.81,117.85-13.93,71.82,22.6,132.97,82.19,171.5,15.45,10.01,32.9,19.07,50.33,25.08,21.67,7.47,44.9,11.62,69.08,11.62,59.51,0,113.47-24.64,153.07-64.65-3.29.55-6.68.94-10.09,1.32-5,.55-10.14.94-15.4.94"/>
</svg>